<svg width="24" height="24" viewBox="0 0 24 24" fill="none" xmlns="http://www.w3.org/2000/svg">
<path d="M0 4C0 1.79086 1.79086 0 4 0H20C22.2091 0 24 1.79086 24 4V20C24 22.2091 22.2091 24 20 24H4C1.79086 24 0 22.2091 0 20V4Z" fill="#EDA6E6"/>
<path d="M15.2131 6.74433C15.4755 6.482 15.6964 6.37154 15.8759 6.41296C16.0554 6.42677 16.2832 6.57174 16.5593 6.84788C16.8354 7.12401 16.9873 7.35873 17.0149 7.55202C17.0425 7.71771 16.9252 7.93171 16.6629 8.19404L13.1835 11.6734L16.87 15.3597C17.1323 15.6221 17.2496 15.8499 17.222 16.0432C17.1944 16.2365 17.0425 16.4712 16.7664 16.7473C16.4765 17.0373 16.2348 17.1961 16.0415 17.2237C15.8482 17.2513 15.6204 17.1339 15.3581 16.8716L11.6717 13.1852L8.21307 16.6438C7.95074 16.9061 7.72983 17.0304 7.55034 17.0166C7.35705 16.989 7.12233 16.8371 6.8462 16.5609C6.57006 16.2848 6.42509 16.057 6.41128 15.8775C6.38367 15.6842 6.50102 15.4564 6.76335 15.1941L10.222 11.7355L6.74264 8.25617C6.48031 7.99384 6.36296 7.76603 6.39057 7.57274C6.41818 7.37944 6.57696 7.13782 6.86691 6.84788C7.14304 6.57174 7.37776 6.41986 7.57105 6.39225C7.76435 6.36464 7.99216 6.48199 8.25449 6.74432L11.7338 10.2236L15.2131 6.74433Z" fill="white"/>
</svg>
